# Capped hemisphere, radius 0.05 m
# Flat face at z = 0; dome apex at z = 0.05
o hemisphere
v 0.00000000 0.00000000 0.05000000
v 0.00490086 0.00000000 0.04975924
v 0.00487726 0.00048037 0.04975924
v 0.00480669 0.00095611 0.04975924
v 0.00468983 0.00142264 0.04975924
v 0.00452780 0.00187548 0.04975924
v 0.00432217 0.00231025 0.04975924
v 0.00407491 0.00272277 0.04975924
v 0.00378841 0.00310907 0.04975924
v 0.00346543 0.00346543 0.04975924
v 0.00310907 0.00378841 0.04975924
v 0.00272277 0.00407491 0.04975924
v 0.00231025 0.00432217 0.04975924
v 0.00187548 0.00452780 0.04975924
v 0.00142264 0.00468983 0.04975924
v 0.00095611 0.00480669 0.04975924
v 0.00048037 0.00487726 0.04975924
v 0.00000000 0.00490086 0.04975924
v -0.00048037 0.00487726 0.04975924
v -0.00095611 0.00480669 0.04975924
v -0.00142264 0.00468983 0.04975924
v -0.00187548 0.00452780 0.04975924
v -0.00231025 0.00432217 0.04975924
v -0.00272277 0.00407491 0.04975924
v -0.00310907 0.00378841 0.04975924
v -0.00346543 0.00346543 0.04975924
v -0.00378841 0.00310907 0.04975924
v -0.00407491 0.00272277 0.04975924
v -0.00432217 0.00231025 0.04975924
v -0.00452780 0.00187548 0.04975924
v -0.00468983 0.00142264 0.04975924
v -0.00480669 0.00095611 0.04975924
v -0.00487726 0.00048037 0.04975924
v -0.00490086 0.00000000 0.04975924
v -0.00487726 -0.00048037 0.04975924
v -0.00480669 -0.00095611 0.04975924
v -0.00468983 -0.00142264 0.04975924
v -0.00452780 -0.00187548 0.04975924
v -0.00432217 -0.00231025 0.04975924
v -0.00407491 -0.00272277 0.04975924
v -0.00378841 -0.00310907 0.04975924
v -0.00346543 -0.00346543 0.04975924
v -0.00310907 -0.00378841 0.04975924
v -0.00272277 -0.00407491 0.04975924
v -0.00231025 -0.00432217 0.04975924
v -0.00187548 -0.00452780 0.04975924
v -0.00142264 -0.00468983 0.04975924
v -0.00095611 -0.00480669 0.04975924
v -0.00048037 -0.00487726 0.04975924
v 0.00000000 -0.00490086 0.04975924
v 0.00048037 -0.00487726 0.04975924
v 0.00095611 -0.00480669 0.04975924
v 0.00142264 -0.00468983 0.04975924
v 0.00187548 -0.00452780 0.04975924
v 0.00231025 -0.00432217 0.04975924
v 0.00272277 -0.00407491 0.04975924
v 0.00310907 -0.00378841 0.04975924
v 0.00346543 -0.00346543 0.04975924
v 0.00378841 -0.00310907 0.04975924
v 0.00407491 -0.00272277 0.04975924
v 0.00432217 -0.00231025 0.04975924
v 0.00452780 -0.00187548 0.04975924
v 0.00468983 -0.00142264 0.04975924
v 0.00480669 -0.00095611 0.04975924
v 0.00487726 -0.00048037 0.04975924
v 0.00975452 0.00000000 0.04903926
v 0.00970755 0.00095611 0.04903926
v 0.00956709 0.00190301 0.04903926
v 0.00933449 0.00283159 0.04903926
v 0.00901200 0.00373289 0.04903926
v 0.00860272 0.00459825 0.04903926
v 0.00811058 0.00541932 0.04903926
v 0.00754034 0.00618820 0.04903926
v 0.00689748 0.00689748 0.04903926
v 0.00618820 0.00754034 0.04903926
v 0.00541932 0.00811058 0.04903926
v 0.00459825 0.00860272 0.04903926
v 0.00373289 0.00901200 0.04903926
v 0.00283159 0.00933449 0.04903926
v 0.00190301 0.00956709 0.04903926
v 0.00095611 0.00970755 0.04903926
v 0.00000000 0.00975452 0.04903926
v -0.00095611 0.00970755 0.04903926
v -0.00190301 0.00956709 0.04903926
v -0.00283159 0.00933449 0.04903926
v -0.00373289 0.00901200 0.04903926
v -0.00459825 0.00860272 0.04903926
v -0.00541932 0.00811058 0.04903926
v -0.00618820 0.00754034 0.04903926
v -0.00689748 0.00689748 0.04903926
v -0.00754034 0.00618820 0.04903926
v -0.00811058 0.00541932 0.04903926
v -0.00860272 0.00459825 0.04903926
v -0.00901200 0.00373289 0.04903926
v -0.00933449 0.00283159 0.04903926
v -0.00956709 0.00190301 0.04903926
v -0.00970755 0.00095611 0.04903926
v -0.00975452 0.00000000 0.04903926
v -0.00970755 -0.00095611 0.04903926
v -0.00956709 -0.00190301 0.04903926
v -0.00933449 -0.00283159 0.04903926
v -0.00901200 -0.00373289 0.04903926
v -0.00860272 -0.00459825 0.04903926
v -0.00811058 -0.00541932 0.04903926
v -0.00754034 -0.00618820 0.04903926
v -0.00689748 -0.00689748 0.04903926
v -0.00618820 -0.00754034 0.04903926
v -0.00541932 -0.00811058 0.04903926
v -0.00459825 -0.00860272 0.04903926
v -0.00373289 -0.00901200 0.04903926
v -0.00283159 -0.00933449 0.04903926
v -0.00190301 -0.00956709 0.04903926
v -0.00095611 -0.00970755 0.04903926
v 0.00000000 -0.00975452 0.04903926
v 0.00095611 -0.00970755 0.04903926
v 0.00190301 -0.00956709 0.04903926
v 0.00283159 -0.00933449 0.04903926
v 0.00373289 -0.00901200 0.04903926
v 0.00459825 -0.00860272 0.04903926
v 0.00541932 -0.00811058 0.04903926
v 0.00618820 -0.00754034 0.04903926
v 0.00689748 -0.00689748 0.04903926
v 0.00754034 -0.00618820 0.04903926
v 0.00811058 -0.00541932 0.04903926
v 0.00860272 -0.00459825 0.04903926
v 0.00901200 -0.00373289 0.04903926
v 0.00933449 -0.00283159 0.04903926
v 0.00956709 -0.00190301 0.04903926
v 0.00970755 -0.00095611 0.04903926
v 0.01451423 0.00000000 0.04784702
v 0.01444434 0.00142264 0.04784702
v 0.01423535 0.00283159 0.04784702
v 0.01388926 0.00421326 0.04784702
v 0.01340940 0.00555436 0.04784702
v 0.01280041 0.00684196 0.04784702
v 0.01206814 0.00806368 0.04784702
v 0.01121965 0.00920773 0.04784702
v 0.01026311 0.01026311 0.04784702
v 0.00920773 0.01121965 0.04784702
v 0.00806368 0.01206814 0.04784702
v 0.00684196 0.01280041 0.04784702
v 0.00555436 0.01340940 0.04784702
v 0.00421326 0.01388926 0.04784702
v 0.00283159 0.01423535 0.04784702
v 0.00142264 0.01444434 0.04784702
v 0.00000000 0.01451423 0.04784702
v -0.00142264 0.01444434 0.04784702
v -0.00283159 0.01423535 0.04784702
v -0.00421326 0.01388926 0.04784702
v -0.00555436 0.01340940 0.04784702
v -0.00684196 0.01280041 0.04784702
v -0.00806368 0.01206814 0.04784702
v -0.00920773 0.01121965 0.04784702
v -0.01026311 0.01026311 0.04784702
v -0.01121965 0.00920773 0.04784702
v -0.01206814 0.00806368 0.04784702
v -0.01280041 0.00684196 0.04784702
v -0.01340940 0.00555436 0.04784702
v -0.01388926 0.00421326 0.04784702
v -0.01423535 0.00283159 0.04784702
v -0.01444434 0.00142264 0.04784702
v -0.01451423 0.00000000 0.04784702
v -0.01444434 -0.00142264 0.04784702
v -0.01423535 -0.00283159 0.04784702
v -0.01388926 -0.00421326 0.04784702
v -0.01340940 -0.00555436 0.04784702
v -0.01280041 -0.00684196 0.04784702
v -0.01206814 -0.00806368 0.04784702
v -0.01121965 -0.00920773 0.04784702
v -0.01026311 -0.01026311 0.04784702
v -0.00920773 -0.01121965 0.04784702
v -0.00806368 -0.01206814 0.04784702
v -0.00684196 -0.01280041 0.04784702
v -0.00555436 -0.01340940 0.04784702
v -0.00421326 -0.01388926 0.04784702
v -0.00283159 -0.01423535 0.04784702
v -0.00142264 -0.01444434 0.04784702
v 0.00000000 -0.01451423 0.04784702
v 0.00142264 -0.01444434 0.04784702
v 0.00283159 -0.01423535 0.04784702
v 0.00421326 -0.01388926 0.04784702
v 0.00555436 -0.01340940 0.04784702
v 0.00684196 -0.01280041 0.04784702
v 0.00806368 -0.01206814 0.04784702
v 0.00920773 -0.01121965 0.04784702
v 0.01026311 -0.01026311 0.04784702
v 0.01121965 -0.00920773 0.04784702
v 0.01206814 -0.00806368 0.04784702
v 0.01280041 -0.00684196 0.04784702
v 0.01340940 -0.00555436 0.04784702
v 0.01388926 -0.00421326 0.04784702
v 0.01423535 -0.00283159 0.04784702
v 0.01444434 -0.00142264 0.04784702
v 0.01913417 0.00000000 0.04619398
v 0.01904204 0.00187548 0.04619398
v 0.01876651 0.00373289 0.04619398
v 0.01831026 0.00555436 0.04619398
v 0.01767767 0.00732233 0.04619398
v 0.01687483 0.00901979 0.04619398
v 0.01590948 0.01063038 0.04619398
v 0.01479091 0.01213859 0.04619398
v 0.01352990 0.01352990 0.04619398
v 0.01213859 0.01479091 0.04619398
v 0.01063038 0.01590948 0.04619398
v 0.00901979 0.01687483 0.04619398
v 0.00732233 0.01767767 0.04619398
v 0.00555436 0.01831026 0.04619398
v 0.00373289 0.01876651 0.04619398
v 0.00187548 0.01904204 0.04619398
v 0.00000000 0.01913417 0.04619398
v -0.00187548 0.01904204 0.04619398
v -0.00373289 0.01876651 0.04619398
v -0.00555436 0.01831026 0.04619398
v -0.00732233 0.01767767 0.04619398
v -0.00901979 0.01687483 0.04619398
v -0.01063038 0.01590948 0.04619398
v -0.01213859 0.01479091 0.04619398
v -0.01352990 0.01352990 0.04619398
v -0.01479091 0.01213859 0.04619398
v -0.01590948 0.01063038 0.04619398
v -0.01687483 0.00901979 0.04619398
v -0.01767767 0.00732233 0.04619398
v -0.01831026 0.00555436 0.04619398
v -0.01876651 0.00373289 0.04619398
v -0.01904204 0.00187548 0.04619398
v -0.01913417 0.00000000 0.04619398
v -0.01904204 -0.00187548 0.04619398
v -0.01876651 -0.00373289 0.04619398
v -0.01831026 -0.00555436 0.04619398
v -0.01767767 -0.00732233 0.04619398
v -0.01687483 -0.00901979 0.04619398
v -0.01590948 -0.01063038 0.04619398
v -0.01479091 -0.01213859 0.04619398
v -0.01352990 -0.01352990 0.04619398
v -0.01213859 -0.01479091 0.04619398
v -0.01063038 -0.01590948 0.04619398
v -0.00901979 -0.01687483 0.04619398
v -0.00732233 -0.01767767 0.04619398
v -0.00555436 -0.01831026 0.04619398
v -0.00373289 -0.01876651 0.04619398
v -0.00187548 -0.01904204 0.04619398
v 0.00000000 -0.01913417 0.04619398
v 0.00187548 -0.01904204 0.04619398
v 0.00373289 -0.01876651 0.04619398
v 0.00555436 -0.01831026 0.04619398
v 0.00732233 -0.01767767 0.04619398
v 0.00901979 -0.01687483 0.04619398
v 0.01063038 -0.01590948 0.04619398
v 0.01213859 -0.01479091 0.04619398
v 0.01352990 -0.01352990 0.04619398
v 0.01479091 -0.01213859 0.04619398
v 0.01590948 -0.01063038 0.04619398
v 0.01687483 -0.00901979 0.04619398
v 0.01767767 -0.00732233 0.04619398
v 0.01831026 -0.00555436 0.04619398
v 0.01876651 -0.00373289 0.04619398
v 0.01904204 -0.00187548 0.04619398
v 0.02356984 0.00000000 0.04409606
v 0.02345634 0.00231025 0.04409606
v 0.02311695 0.00459825 0.04409606
v 0.02255493 0.00684196 0.04409606
v 0.02177569 0.00901979 0.04409606
v 0.02078674 0.01111074 0.04409606
v 0.01959760 0.01309470 0.04409606
v 0.01821973 0.01495255 0.04409606
v 0.01666639 0.01666639 0.04409606
v 0.01495255 0.01821973 0.04409606
v 0.01309470 0.01959760 0.04409606
v 0.01111074 0.02078674 0.04409606
v 0.00901979 0.02177569 0.04409606
v 0.00684196 0.02255493 0.04409606
v 0.00459825 0.02311695 0.04409606
v 0.00231025 0.02345634 0.04409606
v 0.00000000 0.02356984 0.04409606
v -0.00231025 0.02345634 0.04409606
v -0.00459825 0.02311695 0.04409606
v -0.00684196 0.02255493 0.04409606
v -0.00901979 0.02177569 0.04409606
v -0.01111074 0.02078674 0.04409606
v -0.01309470 0.01959760 0.04409606
v -0.01495255 0.01821973 0.04409606
v -0.01666639 0.01666639 0.04409606
v -0.01821973 0.01495255 0.04409606
v -0.01959760 0.01309470 0.04409606
v -0.02078674 0.01111074 0.04409606
v -0.02177569 0.00901979 0.04409606
v -0.02255493 0.00684196 0.04409606
v -0.02311695 0.00459825 0.04409606
v -0.02345634 0.00231025 0.04409606
v -0.02356984 0.00000000 0.04409606
v -0.02345634 -0.00231025 0.04409606
v -0.02311695 -0.00459825 0.04409606
v -0.02255493 -0.00684196 0.04409606
v -0.02177569 -0.00901979 0.04409606
v -0.02078674 -0.01111074 0.04409606
v -0.01959760 -0.01309470 0.04409606
v -0.01821973 -0.01495255 0.04409606
v -0.01666639 -0.01666639 0.04409606
v -0.01495255 -0.01821973 0.04409606
v -0.01309470 -0.01959760 0.04409606
v -0.01111074 -0.02078674 0.04409606
v -0.00901979 -0.02177569 0.04409606
v -0.00684196 -0.02255493 0.04409606
v -0.00459825 -0.02311695 0.04409606
v -0.00231025 -0.02345634 0.04409606
v 0.00000000 -0.02356984 0.04409606
v 0.00231025 -0.02345634 0.04409606
v 0.00459825 -0.02311695 0.04409606
v 0.00684196 -0.02255493 0.04409606
v 0.00901979 -0.02177569 0.04409606
v 0.01111074 -0.02078674 0.04409606
v 0.01309470 -0.01959760 0.04409606
v 0.01495255 -0.01821973 0.04409606
v 0.01666639 -0.01666639 0.04409606
v 0.01821973 -0.01495255 0.04409606
v 0.01959760 -0.01309470 0.04409606
v 0.02078674 -0.01111074 0.04409606
v 0.02177569 -0.00901979 0.04409606
v 0.02255493 -0.00684196 0.04409606
v 0.02311695 -0.00459825 0.04409606
v 0.02345634 -0.00231025 0.04409606
v 0.02777851 0.00000000 0.04157348
v 0.02764475 0.00272277 0.04157348
v 0.02724476 0.00541932 0.04157348
v 0.02658238 0.00806368 0.04157348
v 0.02566400 0.01063038 0.04157348
v 0.02449846 0.01309470 0.04157348
v 0.02309699 0.01543291 0.04157348
v 0.02147308 0.01762250 0.04157348
v 0.01964237 0.01964237 0.04157348
v 0.01762250 0.02147308 0.04157348
v 0.01543291 0.02309699 0.04157348
v 0.01309470 0.02449846 0.04157348
v 0.01063038 0.02566400 0.04157348
v 0.00806368 0.02658238 0.04157348
v 0.00541932 0.02724476 0.04157348
v 0.00272277 0.02764475 0.04157348
v 0.00000000 0.02777851 0.04157348
v -0.00272277 0.02764475 0.04157348
v -0.00541932 0.02724476 0.04157348
v -0.00806368 0.02658238 0.04157348
v -0.01063038 0.02566400 0.04157348
v -0.01309470 0.02449846 0.04157348
v -0.01543291 0.02309699 0.04157348
v -0.01762250 0.02147308 0.04157348
v -0.01964237 0.01964237 0.04157348
v -0.02147308 0.01762250 0.04157348
v -0.02309699 0.01543291 0.04157348
v -0.02449846 0.01309470 0.04157348
v -0.02566400 0.01063038 0.04157348
v -0.02658238 0.00806368 0.04157348
v -0.02724476 0.00541932 0.04157348
v -0.02764475 0.00272277 0.04157348
v -0.02777851 0.00000000 0.04157348
v -0.02764475 -0.00272277 0.04157348
v -0.02724476 -0.00541932 0.04157348
v -0.02658238 -0.00806368 0.04157348
v -0.02566400 -0.01063038 0.04157348
v -0.02449846 -0.01309470 0.04157348
v -0.02309699 -0.01543291 0.04157348
v -0.02147308 -0.01762250 0.04157348
v -0.01964237 -0.01964237 0.04157348
v -0.01762250 -0.02147308 0.04157348
v -0.01543291 -0.02309699 0.04157348
v -0.01309470 -0.02449846 0.04157348
v -0.01063038 -0.02566400 0.04157348
v -0.00806368 -0.02658238 0.04157348
v -0.00541932 -0.02724476 0.04157348
v -0.00272277 -0.02764475 0.04157348
v 0.00000000 -0.02777851 0.04157348
v 0.00272277 -0.02764475 0.04157348
v 0.00541932 -0.02724476 0.04157348
v 0.00806368 -0.02658238 0.04157348
v 0.01063038 -0.02566400 0.04157348
v 0.01309470 -0.02449846 0.04157348
v 0.01543291 -0.02309699 0.04157348
v 0.01762250 -0.02147308 0.04157348
v 0.01964237 -0.01964237 0.04157348
v 0.02147308 -0.01762250 0.04157348
v 0.02309699 -0.01543291 0.04157348
v 0.02449846 -0.01309470 0.04157348
v 0.02566400 -0.01063038 0.04157348
v 0.02658238 -0.00806368 0.04157348
v 0.02724476 -0.00541932 0.04157348
v 0.02764475 -0.00272277 0.04157348
v 0.03171966 0.00000000 0.03865052
v 0.03156693 0.00310907 0.03865052
v 0.03111018 0.00618820 0.03865052
v 0.03035383 0.00920773 0.03865052
v 0.02930515 0.01213859 0.03865052
v 0.02797425 0.01495255 0.03865052
v 0.02637394 0.01762250 0.03865052
v 0.02451963 0.02012274 0.03865052
v 0.02242919 0.02242919 0.03865052
v 0.02012274 0.02451963 0.03865052
v 0.01762250 0.02637394 0.03865052
v 0.01495255 0.02797425 0.03865052
v 0.01213859 0.02930515 0.03865052
v 0.00920773 0.03035383 0.03865052
v 0.00618820 0.03111018 0.03865052
v 0.00310907 0.03156693 0.03865052
v 0.00000000 0.03171966 0.03865052
v -0.00310907 0.03156693 0.03865052
v -0.00618820 0.03111018 0.03865052
v -0.00920773 0.03035383 0.03865052
v -0.01213859 0.02930515 0.03865052
v -0.01495255 0.02797425 0.03865052
v -0.01762250 0.02637394 0.03865052
v -0.02012274 0.02451963 0.03865052
v -0.02242919 0.02242919 0.03865052
v -0.02451963 0.02012274 0.03865052
v -0.02637394 0.01762250 0.03865052
v -0.02797425 0.01495255 0.03865052
v -0.02930515 0.01213859 0.03865052
v -0.03035383 0.00920773 0.03865052
v -0.03111018 0.00618820 0.03865052
v -0.03156693 0.00310907 0.03865052
v -0.03171966 0.00000000 0.03865052
v -0.03156693 -0.00310907 0.03865052
v -0.03111018 -0.00618820 0.03865052
v -0.03035383 -0.00920773 0.03865052
v -0.02930515 -0.01213859 0.03865052
v -0.02797425 -0.01495255 0.03865052
v -0.02637394 -0.01762250 0.03865052
v -0.02451963 -0.02012274 0.03865052
v -0.02242919 -0.02242919 0.03865052
v -0.02012274 -0.02451963 0.03865052
v -0.01762250 -0.02637394 0.03865052
v -0.01495255 -0.02797425 0.03865052
v -0.01213859 -0.02930515 0.03865052
v -0.00920773 -0.03035383 0.03865052
v -0.00618820 -0.03111018 0.03865052
v -0.00310907 -0.03156693 0.03865052
v 0.00000000 -0.03171966 0.03865052
v 0.00310907 -0.03156693 0.03865052
v 0.00618820 -0.03111018 0.03865052
v 0.00920773 -0.03035383 0.03865052
v 0.01213859 -0.02930515 0.03865052
v 0.01495255 -0.02797425 0.03865052
v 0.01762250 -0.02637394 0.03865052
v 0.02012274 -0.02451963 0.03865052
v 0.02242919 -0.02242919 0.03865052
v 0.02451963 -0.02012274 0.03865052
v 0.02637394 -0.01762250 0.03865052
v 0.02797425 -0.01495255 0.03865052
v 0.02930515 -0.01213859 0.03865052
v 0.03035383 -0.00920773 0.03865052
v 0.03111018 -0.00618820 0.03865052
v 0.03156693 -0.00310907 0.03865052
v 0.03535534 0.00000000 0.03535534
v 0.03518509 0.00346543 0.03535534
v 0.03467600 0.00689748 0.03535534
v 0.03383295 0.01026311 0.03535534
v 0.03266407 0.01352990 0.03535534
v 0.03118063 0.01666639 0.03535534
v 0.02939689 0.01964237 0.03535534
v 0.02733005 0.02242919 0.03535534
v 0.02500000 0.02500000 0.03535534
v 0.02242919 0.02733005 0.03535534
v 0.01964237 0.02939689 0.03535534
v 0.01666639 0.03118063 0.03535534
v 0.01352990 0.03266407 0.03535534
v 0.01026311 0.03383295 0.03535534
v 0.00689748 0.03467600 0.03535534
v 0.00346543 0.03518509 0.03535534
v 0.00000000 0.03535534 0.03535534
v -0.00346543 0.03518509 0.03535534
v -0.00689748 0.03467600 0.03535534
v -0.01026311 0.03383295 0.03535534
v -0.01352990 0.03266407 0.03535534
v -0.01666639 0.03118063 0.03535534
v -0.01964237 0.02939689 0.03535534
v -0.02242919 0.02733005 0.03535534
v -0.02500000 0.02500000 0.03535534
v -0.02733005 0.02242919 0.03535534
v -0.02939689 0.01964237 0.03535534
v -0.03118063 0.01666639 0.03535534
v -0.03266407 0.01352990 0.03535534
v -0.03383295 0.01026311 0.03535534
v -0.03467600 0.00689748 0.03535534
v -0.03518509 0.00346543 0.03535534
v -0.03535534 0.00000000 0.03535534
v -0.03518509 -0.00346543 0.03535534
v -0.03467600 -0.00689748 0.03535534
v -0.03383295 -0.01026311 0.03535534
v -0.03266407 -0.01352990 0.03535534
v -0.03118063 -0.01666639 0.03535534
v -0.02939689 -0.01964237 0.03535534
v -0.02733005 -0.02242919 0.03535534
v -0.02500000 -0.02500000 0.03535534
v -0.02242919 -0.02733005 0.03535534
v -0.01964237 -0.02939689 0.03535534
v -0.01666639 -0.03118063 0.03535534
v -0.01352990 -0.03266407 0.03535534
v -0.01026311 -0.03383295 0.03535534
v -0.00689748 -0.03467600 0.03535534
v -0.00346543 -0.03518509 0.03535534
v 0.00000000 -0.03535534 0.03535534
v 0.00346543 -0.03518509 0.03535534
v 0.00689748 -0.03467600 0.03535534
v 0.01026311 -0.03383295 0.03535534
v 0.01352990 -0.03266407 0.03535534
v 0.01666639 -0.03118063 0.03535534
v 0.01964237 -0.02939689 0.03535534
v 0.02242919 -0.02733005 0.03535534
v 0.02500000 -0.02500000 0.03535534
v 0.02733005 -0.02242919 0.03535534
v 0.02939689 -0.01964237 0.03535534
v 0.03118063 -0.01666639 0.03535534
v 0.03266407 -0.01352990 0.03535534
v 0.03383295 -0.01026311 0.03535534
v 0.03467600 -0.00689748 0.03535534
v 0.03518509 -0.00346543 0.03535534
v 0.03865052 0.00000000 0.03171966
v 0.03846441 0.00378841 0.03171966
v 0.03790786 0.00754034 0.03171966
v 0.03698624 0.01121965 0.03171966
v 0.03570843 0.01479091 0.03171966
v 0.03408672 0.01821973 0.03171966
v 0.03213674 0.02147308 0.03171966
v 0.02987726 0.02451963 0.03171966
v 0.02733005 0.02733005 0.03171966
v 0.02451963 0.02987726 0.03171966
v 0.02147308 0.03213674 0.03171966
v 0.01821973 0.03408672 0.03171966
v 0.01479091 0.03570843 0.03171966
v 0.01121965 0.03698624 0.03171966
v 0.00754034 0.03790786 0.03171966
v 0.00378841 0.03846441 0.03171966
v 0.00000000 0.03865052 0.03171966
v -0.00378841 0.03846441 0.03171966
v -0.00754034 0.03790786 0.03171966
v -0.01121965 0.03698624 0.03171966
v -0.01479091 0.03570843 0.03171966
v -0.01821973 0.03408672 0.03171966
v -0.02147308 0.03213674 0.03171966
v -0.02451963 0.02987726 0.03171966
v -0.02733005 0.02733005 0.03171966
v -0.02987726 0.02451963 0.03171966
v -0.03213674 0.02147308 0.03171966
v -0.03408672 0.01821973 0.03171966
v -0.03570843 0.01479091 0.03171966
v -0.03698624 0.01121965 0.03171966
v -0.03790786 0.00754034 0.03171966
v -0.03846441 0.00378841 0.03171966
v -0.03865052 0.00000000 0.03171966
v -0.03846441 -0.00378841 0.03171966
v -0.03790786 -0.00754034 0.03171966
v -0.03698624 -0.01121965 0.03171966
v -0.03570843 -0.01479091 0.03171966
v -0.03408672 -0.01821973 0.03171966
v -0.03213674 -0.02147308 0.03171966
v -0.02987726 -0.02451963 0.03171966
v -0.02733005 -0.02733005 0.03171966
v -0.02451963 -0.02987726 0.03171966
v -0.02147308 -0.03213674 0.03171966
v -0.01821973 -0.03408672 0.03171966
v -0.01479091 -0.03570843 0.03171966
v -0.01121965 -0.03698624 0.03171966
v -0.00754034 -0.03790786 0.03171966
v -0.00378841 -0.03846441 0.03171966
v 0.00000000 -0.03865052 0.03171966
v 0.00378841 -0.03846441 0.03171966
v 0.00754034 -0.03790786 0.03171966
v 0.01121965 -0.03698624 0.03171966
v 0.01479091 -0.03570843 0.03171966
v 0.01821973 -0.03408672 0.03171966
v 0.02147308 -0.03213674 0.03171966
v 0.02451963 -0.02987726 0.03171966
v 0.02733005 -0.02733005 0.03171966
v 0.02987726 -0.02451963 0.03171966
v 0.03213674 -0.02147308 0.03171966
v 0.03408672 -0.01821973 0.03171966
v 0.03570843 -0.01479091 0.03171966
v 0.03698624 -0.01121965 0.03171966
v 0.03790786 -0.00754034 0.03171966
v 0.03846441 -0.00378841 0.03171966
v 0.04157348 0.00000000 0.02777851
v 0.04137329 0.00407491 0.02777851
v 0.04077466 0.00811058 0.02777851
v 0.03978334 0.01206814 0.02777851
v 0.03840889 0.01590948 0.02777851
v 0.03666454 0.01959760 0.02777851
v 0.03456709 0.02309699 0.02777851
v 0.03213674 0.02637394 0.02777851
v 0.02939689 0.02939689 0.02777851
v 0.02637394 0.03213674 0.02777851
v 0.02309699 0.03456709 0.02777851
v 0.01959760 0.03666454 0.02777851
v 0.01590948 0.03840889 0.02777851
v 0.01206814 0.03978334 0.02777851
v 0.00811058 0.04077466 0.02777851
v 0.00407491 0.04137329 0.02777851
v 0.00000000 0.04157348 0.02777851
v -0.00407491 0.04137329 0.02777851
v -0.00811058 0.04077466 0.02777851
v -0.01206814 0.03978334 0.02777851
v -0.01590948 0.03840889 0.02777851
v -0.01959760 0.03666454 0.02777851
v -0.02309699 0.03456709 0.02777851
v -0.02637394 0.03213674 0.02777851
v -0.02939689 0.02939689 0.02777851
v -0.03213674 0.02637394 0.02777851
v -0.03456709 0.02309699 0.02777851
v -0.03666454 0.01959760 0.02777851
v -0.03840889 0.01590948 0.02777851
v -0.03978334 0.01206814 0.02777851
v -0.04077466 0.00811058 0.02777851
v -0.04137329 0.00407491 0.02777851
v -0.04157348 0.00000000 0.02777851
v -0.04137329 -0.00407491 0.02777851
v -0.04077466 -0.00811058 0.02777851
v -0.03978334 -0.01206814 0.02777851
v -0.03840889 -0.01590948 0.02777851
v -0.03666454 -0.01959760 0.02777851
v -0.03456709 -0.02309699 0.02777851
v -0.03213674 -0.02637394 0.02777851
v -0.02939689 -0.02939689 0.02777851
v -0.02637394 -0.03213674 0.02777851
v -0.02309699 -0.03456709 0.02777851
v -0.01959760 -0.03666454 0.02777851
v -0.01590948 -0.03840889 0.02777851
v -0.01206814 -0.03978334 0.02777851
v -0.00811058 -0.04077466 0.02777851
v -0.00407491 -0.04137329 0.02777851
v 0.00000000 -0.04157348 0.02777851
v 0.00407491 -0.04137329 0.02777851
v 0.00811058 -0.04077466 0.02777851
v 0.01206814 -0.03978334 0.02777851
v 0.01590948 -0.03840889 0.02777851
v 0.01959760 -0.03666454 0.02777851
v 0.02309699 -0.03456709 0.02777851
v 0.02637394 -0.03213674 0.02777851
v 0.02939689 -0.02939689 0.02777851
v 0.03213674 -0.02637394 0.02777851
v 0.03456709 -0.02309699 0.02777851
v 0.03666454 -0.01959760 0.02777851
v 0.03840889 -0.01590948 0.02777851
v 0.03978334 -0.01206814 0.02777851
v 0.04077466 -0.00811058 0.02777851
v 0.04137329 -0.00407491 0.02777851
v 0.04409606 0.00000000 0.02356984
v 0.04388373 0.00432217 0.02356984
v 0.04324877 0.00860272 0.02356984
v 0.04219730 0.01280041 0.02356984
v 0.04073945 0.01687483 0.02356984
v 0.03888926 0.02078674 0.02356984
v 0.03666454 0.02449846 0.02356984
v 0.03408672 0.02797425 0.02356984
v 0.03118063 0.03118063 0.02356984
v 0.02797425 0.03408672 0.02356984
v 0.02449846 0.03666454 0.02356984
v 0.02078674 0.03888926 0.02356984
v 0.01687483 0.04073945 0.02356984
v 0.01280041 0.04219730 0.02356984
v 0.00860272 0.04324877 0.02356984
v 0.00432217 0.04388373 0.02356984
v 0.00000000 0.04409606 0.02356984
v -0.00432217 0.04388373 0.02356984
v -0.00860272 0.04324877 0.02356984
v -0.01280041 0.04219730 0.02356984
v -0.01687483 0.04073945 0.02356984
v -0.02078674 0.03888926 0.02356984
v -0.02449846 0.03666454 0.02356984
v -0.02797425 0.03408672 0.02356984
v -0.03118063 0.03118063 0.02356984
v -0.03408672 0.02797425 0.02356984
v -0.03666454 0.02449846 0.02356984
v -0.03888926 0.02078674 0.02356984
v -0.04073945 0.01687483 0.02356984
v -0.04219730 0.01280041 0.02356984
v -0.04324877 0.00860272 0.02356984
v -0.04388373 0.00432217 0.02356984
v -0.04409606 0.00000000 0.02356984
v -0.04388373 -0.00432217 0.02356984
v -0.04324877 -0.00860272 0.02356984
v -0.04219730 -0.01280041 0.02356984
v -0.04073945 -0.01687483 0.02356984
v -0.03888926 -0.02078674 0.02356984
v -0.03666454 -0.02449846 0.02356984
v -0.03408672 -0.02797425 0.02356984
v -0.03118063 -0.03118063 0.02356984
v -0.02797425 -0.03408672 0.02356984
v -0.02449846 -0.03666454 0.02356984
v -0.02078674 -0.03888926 0.02356984
v -0.01687483 -0.04073945 0.02356984
v -0.01280041 -0.04219730 0.02356984
v -0.00860272 -0.04324877 0.02356984
v -0.00432217 -0.04388373 0.02356984
v 0.00000000 -0.04409606 0.02356984
v 0.00432217 -0.04388373 0.02356984
v 0.00860272 -0.04324877 0.02356984
v 0.01280041 -0.04219730 0.02356984
v 0.01687483 -0.04073945 0.02356984
v 0.02078674 -0.03888926 0.02356984
v 0.02449846 -0.03666454 0.02356984
v 0.02797425 -0.03408672 0.02356984
v 0.03118063 -0.03118063 0.02356984
v 0.03408672 -0.02797425 0.02356984
v 0.03666454 -0.02449846 0.02356984
v 0.03888926 -0.02078674 0.02356984
v 0.04073945 -0.01687483 0.02356984
v 0.04219730 -0.01280041 0.02356984
v 0.04324877 -0.00860272 0.02356984
v 0.04388373 -0.00432217 0.02356984
v 0.04619398 0.00000000 0.01913417
v 0.04597154 0.00452780 0.01913417
v 0.04530637 0.00901200 0.01913417
v 0.04420488 0.01340940 0.01913417
v 0.04267767 0.01767767 0.01913417
v 0.04073945 0.02177569 0.01913417
v 0.03840889 0.02566400 0.01913417
v 0.03570843 0.02930515 0.01913417
v 0.03266407 0.03266407 0.01913417
v 0.02930515 0.03570843 0.01913417
v 0.02566400 0.03840889 0.01913417
v 0.02177569 0.04073945 0.01913417
v 0.01767767 0.04267767 0.01913417
v 0.01340940 0.04420488 0.01913417
v 0.00901200 0.04530637 0.01913417
v 0.00452780 0.04597154 0.01913417
v 0.00000000 0.04619398 0.01913417
v -0.00452780 0.04597154 0.01913417
v -0.00901200 0.04530637 0.01913417
v -0.01340940 0.04420488 0.01913417
v -0.01767767 0.04267767 0.01913417
v -0.02177569 0.04073945 0.01913417
v -0.02566400 0.03840889 0.01913417
v -0.02930515 0.03570843 0.01913417
v -0.03266407 0.03266407 0.01913417
v -0.03570843 0.02930515 0.01913417
v -0.03840889 0.02566400 0.01913417
v -0.04073945 0.02177569 0.01913417
v -0.04267767 0.01767767 0.01913417
v -0.04420488 0.01340940 0.01913417
v -0.04530637 0.00901200 0.01913417
v -0.04597154 0.00452780 0.01913417
v -0.04619398 0.00000000 0.01913417
v -0.04597154 -0.00452780 0.01913417
v -0.04530637 -0.00901200 0.01913417
v -0.04420488 -0.01340940 0.01913417
v -0.04267767 -0.01767767 0.01913417
v -0.04073945 -0.02177569 0.01913417
v -0.03840889 -0.02566400 0.01913417
v -0.03570843 -0.02930515 0.01913417
v -0.03266407 -0.03266407 0.01913417
v -0.02930515 -0.03570843 0.01913417
v -0.02566400 -0.03840889 0.01913417
v -0.02177569 -0.04073945 0.01913417
v -0.01767767 -0.04267767 0.01913417
v -0.01340940 -0.04420488 0.01913417
v -0.00901200 -0.04530637 0.01913417
v -0.00452780 -0.04597154 0.01913417
v 0.00000000 -0.04619398 0.01913417
v 0.00452780 -0.04597154 0.01913417
v 0.00901200 -0.04530637 0.01913417
v 0.01340940 -0.04420488 0.01913417
v 0.01767767 -0.04267767 0.01913417
v 0.02177569 -0.04073945 0.01913417
v 0.02566400 -0.03840889 0.01913417
v 0.02930515 -0.03570843 0.01913417
v 0.03266407 -0.03266407 0.01913417
v 0.03570843 -0.02930515 0.01913417
v 0.03840889 -0.02566400 0.01913417
v 0.04073945 -0.02177569 0.01913417
v 0.04267767 -0.01767767 0.01913417
v 0.04420488 -0.01340940 0.01913417
v 0.04530637 -0.00901200 0.01913417
v 0.04597154 -0.00452780 0.01913417
v 0.04784702 0.00000000 0.01451423
v 0.04761662 0.00468983 0.01451423
v 0.04692765 0.00933449 0.01451423
v 0.04578674 0.01388926 0.01451423
v 0.04420488 0.01831026 0.01451423
v 0.04219730 0.02255493 0.01451423
v 0.03978334 0.02658238 0.01451423
v 0.03698624 0.03035383 0.01451423
v 0.03383295 0.03383295 0.01451423
v 0.03035383 0.03698624 0.01451423
v 0.02658238 0.03978334 0.01451423
v 0.02255493 0.04219730 0.01451423
v 0.01831026 0.04420488 0.01451423
v 0.01388926 0.04578674 0.01451423
v 0.00933449 0.04692765 0.01451423
v 0.00468983 0.04761662 0.01451423
v 0.00000000 0.04784702 0.01451423
v -0.00468983 0.04761662 0.01451423
v -0.00933449 0.04692765 0.01451423
v -0.01388926 0.04578674 0.01451423
v -0.01831026 0.04420488 0.01451423
v -0.02255493 0.04219730 0.01451423
v -0.02658238 0.03978334 0.01451423
v -0.03035383 0.03698624 0.01451423
v -0.03383295 0.03383295 0.01451423
v -0.03698624 0.03035383 0.01451423
v -0.03978334 0.02658238 0.01451423
v -0.04219730 0.02255493 0.01451423
v -0.04420488 0.01831026 0.01451423
v -0.04578674 0.01388926 0.01451423
v -0.04692765 0.00933449 0.01451423
v -0.04761662 0.00468983 0.01451423
v -0.04784702 0.00000000 0.01451423
v -0.04761662 -0.00468983 0.01451423
v -0.04692765 -0.00933449 0.01451423
v -0.04578674 -0.01388926 0.01451423
v -0.04420488 -0.01831026 0.01451423
v -0.04219730 -0.02255493 0.01451423
v -0.03978334 -0.02658238 0.01451423
v -0.03698624 -0.03035383 0.01451423
v -0.03383295 -0.03383295 0.01451423
v -0.03035383 -0.03698624 0.01451423
v -0.02658238 -0.03978334 0.01451423
v -0.02255493 -0.04219730 0.01451423
v -0.01831026 -0.04420488 0.01451423
v -0.01388926 -0.04578674 0.01451423
v -0.00933449 -0.04692765 0.01451423
v -0.00468983 -0.04761662 0.01451423
v 0.00000000 -0.04784702 0.01451423
v 0.00468983 -0.04761662 0.01451423
v 0.00933449 -0.04692765 0.01451423
v 0.01388926 -0.04578674 0.01451423
v 0.01831026 -0.04420488 0.01451423
v 0.02255493 -0.04219730 0.01451423
v 0.02658238 -0.03978334 0.01451423
v 0.03035383 -0.03698624 0.01451423
v 0.03383295 -0.03383295 0.01451423
v 0.03698624 -0.03035383 0.01451423
v 0.03978334 -0.02658238 0.01451423
v 0.04219730 -0.02255493 0.01451423
v 0.04420488 -0.01831026 0.01451423
v 0.04578674 -0.01388926 0.01451423
v 0.04692765 -0.00933449 0.01451423
v 0.04761662 -0.00468983 0.01451423
v 0.04903926 0.00000000 0.00975452
v 0.04880313 0.00480669 0.00975452
v 0.04809699 0.00956709 0.00975452
v 0.04692765 0.01423535 0.00975452
v 0.04530637 0.01876651 0.00975452
v 0.04324877 0.02311695 0.00975452
v 0.04077466 0.02724476 0.00975452
v 0.03790786 0.03111018 0.00975452
v 0.03467600 0.03467600 0.00975452
v 0.03111018 0.03790786 0.00975452
v 0.02724476 0.04077466 0.00975452
v 0.02311695 0.04324877 0.00975452
v 0.01876651 0.04530637 0.00975452
v 0.01423535 0.04692765 0.00975452
v 0.00956709 0.04809699 0.00975452
v 0.00480669 0.04880313 0.00975452
v 0.00000000 0.04903926 0.00975452
v -0.00480669 0.04880313 0.00975452
v -0.00956709 0.04809699 0.00975452
v -0.01423535 0.04692765 0.00975452
v -0.01876651 0.04530637 0.00975452
v -0.02311695 0.04324877 0.00975452
v -0.02724476 0.04077466 0.00975452
v -0.03111018 0.03790786 0.00975452
v -0.03467600 0.03467600 0.00975452
v -0.03790786 0.03111018 0.00975452
v -0.04077466 0.02724476 0.00975452
v -0.04324877 0.02311695 0.00975452
v -0.04530637 0.01876651 0.00975452
v -0.04692765 0.01423535 0.00975452
v -0.04809699 0.00956709 0.00975452
v -0.04880313 0.00480669 0.00975452
v -0.04903926 0.00000000 0.00975452
v -0.04880313 -0.00480669 0.00975452
v -0.04809699 -0.00956709 0.00975452
v -0.04692765 -0.01423535 0.00975452
v -0.04530637 -0.01876651 0.00975452
v -0.04324877 -0.02311695 0.00975452
v -0.04077466 -0.02724476 0.00975452
v -0.03790786 -0.03111018 0.00975452
v -0.03467600 -0.03467600 0.00975452
v -0.03111018 -0.03790786 0.00975452
v -0.02724476 -0.04077466 0.00975452
v -0.02311695 -0.04324877 0.00975452
v -0.01876651 -0.04530637 0.00975452
v -0.01423535 -0.04692765 0.00975452
v -0.00956709 -0.04809699 0.00975452
v -0.00480669 -0.04880313 0.00975452
v 0.00000000 -0.04903926 0.00975452
v 0.00480669 -0.04880313 0.00975452
v 0.00956709 -0.04809699 0.00975452
v 0.01423535 -0.04692765 0.00975452
v 0.01876651 -0.04530637 0.00975452
v 0.02311695 -0.04324877 0.00975452
v 0.02724476 -0.04077466 0.00975452
v 0.03111018 -0.03790786 0.00975452
v 0.03467600 -0.03467600 0.00975452
v 0.03790786 -0.03111018 0.00975452
v 0.04077466 -0.02724476 0.00975452
v 0.04324877 -0.02311695 0.00975452
v 0.04530637 -0.01876651 0.00975452
v 0.04692765 -0.01423535 0.00975452
v 0.04809699 -0.00956709 0.00975452
v 0.04880313 -0.00480669 0.00975452
v 0.04975924 0.00000000 0.00490086
v 0.04951963 0.00487726 0.00490086
v 0.04880313 0.00970755 0.00490086
v 0.04761662 0.01444434 0.00490086
v 0.04597154 0.01904204 0.00490086
v 0.04388373 0.02345634 0.00490086
v 0.04137329 0.02764475 0.00490086
v 0.03846441 0.03156693 0.00490086
v 0.03518509 0.03518509 0.00490086
v 0.03156693 0.03846441 0.00490086
v 0.02764475 0.04137329 0.00490086
v 0.02345634 0.04388373 0.00490086
v 0.01904204 0.04597154 0.00490086
v 0.01444434 0.04761662 0.00490086
v 0.00970755 0.04880313 0.00490086
v 0.00487726 0.04951963 0.00490086
v 0.00000000 0.04975924 0.00490086
v -0.00487726 0.04951963 0.00490086
v -0.00970755 0.04880313 0.00490086
v -0.01444434 0.04761662 0.00490086
v -0.01904204 0.04597154 0.00490086
v -0.02345634 0.04388373 0.00490086
v -0.02764475 0.04137329 0.00490086
v -0.03156693 0.03846441 0.00490086
v -0.03518509 0.03518509 0.00490086
v -0.03846441 0.03156693 0.00490086
v -0.04137329 0.02764475 0.00490086
v -0.04388373 0.02345634 0.00490086
v -0.04597154 0.01904204 0.00490086
v -0.04761662 0.01444434 0.00490086
v -0.04880313 0.00970755 0.00490086
v -0.04951963 0.00487726 0.00490086
v -0.04975924 0.00000000 0.00490086
v -0.04951963 -0.00487726 0.00490086
v -0.04880313 -0.00970755 0.00490086
v -0.04761662 -0.01444434 0.00490086
v -0.04597154 -0.01904204 0.00490086
v -0.04388373 -0.02345634 0.00490086
v -0.04137329 -0.02764475 0.00490086
v -0.03846441 -0.03156693 0.00490086
v -0.03518509 -0.03518509 0.00490086
v -0.03156693 -0.03846441 0.00490086
v -0.02764475 -0.04137329 0.00490086
v -0.02345634 -0.04388373 0.00490086
v -0.01904204 -0.04597154 0.00490086
v -0.01444434 -0.04761662 0.00490086
v -0.00970755 -0.04880313 0.00490086
v -0.00487726 -0.04951963 0.00490086
v 0.00000000 -0.04975924 0.00490086
v 0.00487726 -0.04951963 0.00490086
v 0.00970755 -0.04880313 0.00490086
v 0.01444434 -0.04761662 0.00490086
v 0.01904204 -0.04597154 0.00490086
v 0.02345634 -0.04388373 0.00490086
v 0.02764475 -0.04137329 0.00490086
v 0.03156693 -0.03846441 0.00490086
v 0.03518509 -0.03518509 0.00490086
v 0.03846441 -0.03156693 0.00490086
v 0.04137329 -0.02764475 0.00490086
v 0.04388373 -0.02345634 0.00490086
v 0.04597154 -0.01904204 0.00490086
v 0.04761662 -0.01444434 0.00490086
v 0.04880313 -0.00970755 0.00490086
v 0.04951963 -0.00487726 0.00490086
v 0.05000000 0.00000000 0.00000000
v 0.04975924 0.00490086 0.00000000
v 0.04903926 0.00975452 0.00000000
v 0.04784702 0.01451423 0.00000000
v 0.04619398 0.01913417 0.00000000
v 0.04409606 0.02356984 0.00000000
v 0.04157348 0.02777851 0.00000000
v 0.03865052 0.03171966 0.00000000
v 0.03535534 0.03535534 0.00000000
v 0.03171966 0.03865052 0.00000000
v 0.02777851 0.04157348 0.00000000
v 0.02356984 0.04409606 0.00000000
v 0.01913417 0.04619398 0.00000000
v 0.01451423 0.04784702 0.00000000
v 0.00975452 0.04903926 0.00000000
v 0.00490086 0.04975924 0.00000000
v 0.00000000 0.05000000 0.00000000
v -0.00490086 0.04975924 0.00000000
v -0.00975452 0.04903926 0.00000000
v -0.01451423 0.04784702 0.00000000
v -0.01913417 0.04619398 0.00000000
v -0.02356984 0.04409606 0.00000000
v -0.02777851 0.04157348 0.00000000
v -0.03171966 0.03865052 0.00000000
v -0.03535534 0.03535534 0.00000000
v -0.03865052 0.03171966 0.00000000
v -0.04157348 0.02777851 0.00000000
v -0.04409606 0.02356984 0.00000000
v -0.04619398 0.01913417 0.00000000
v -0.04784702 0.01451423 0.00000000
v -0.04903926 0.00975452 0.00000000
v -0.04975924 0.00490086 0.00000000
v -0.05000000 0.00000000 0.00000000
v -0.04975924 -0.00490086 0.00000000
v -0.04903926 -0.00975452 0.00000000
v -0.04784702 -0.01451423 0.00000000
v -0.04619398 -0.01913417 0.00000000
v -0.04409606 -0.02356984 0.00000000
v -0.04157348 -0.02777851 0.00000000
v -0.03865052 -0.03171966 0.00000000
v -0.03535534 -0.03535534 0.00000000
v -0.03171966 -0.03865052 0.00000000
v -0.02777851 -0.04157348 0.00000000
v -0.02356984 -0.04409606 0.00000000
v -0.01913417 -0.04619398 0.00000000
v -0.01451423 -0.04784702 0.00000000
v -0.00975452 -0.04903926 0.00000000
v -0.00490086 -0.04975924 0.00000000
v 0.00000000 -0.05000000 0.00000000
v 0.00490086 -0.04975924 0.00000000
v 0.00975452 -0.04903926 0.00000000
v 0.01451423 -0.04784702 0.00000000
v 0.01913417 -0.04619398 0.00000000
v 0.02356984 -0.04409606 0.00000000
v 0.02777851 -0.04157348 0.00000000
v 0.03171966 -0.03865052 0.00000000
v 0.03535534 -0.03535534 0.00000000
v 0.03865052 -0.03171966 0.00000000
v 0.04157348 -0.02777851 0.00000000
v 0.04409606 -0.02356984 0.00000000
v 0.04619398 -0.01913417 0.00000000
v 0.04784702 -0.01451423 0.00000000
v 0.04903926 -0.00975452 0.00000000
v 0.04975924 -0.00490086 0.00000000
v 0.00000000 0.00000000 0.00000000
s 1
f 1 2 3
f 1 3 4
f 1 4 5
f 1 5 6
f 1 6 7
f 1 7 8
f 1 8 9
f 1 9 10
f 1 10 11
f 1 11 12
f 1 12 13
f 1 13 14
f 1 14 15
f 1 15 16
f 1 16 17
f 1 17 18
f 1 18 19
f 1 19 20
f 1 20 21
f 1 21 22
f 1 22 23
f 1 23 24
f 1 24 25
f 1 25 26
f 1 26 27
f 1 27 28
f 1 28 29
f 1 29 30
f 1 30 31
f 1 31 32
f 1 32 33
f 1 33 34
f 1 34 35
f 1 35 36
f 1 36 37
f 1 37 38
f 1 38 39
f 1 39 40
f 1 40 41
f 1 41 42
f 1 42 43
f 1 43 44
f 1 44 45
f 1 45 46
f 1 46 47
f 1 47 48
f 1 48 49
f 1 49 50
f 1 50 51
f 1 51 52
f 1 52 53
f 1 53 54
f 1 54 55
f 1 55 56
f 1 56 57
f 1 57 58
f 1 58 59
f 1 59 60
f 1 60 61
f 1 61 62
f 1 62 63
f 1 63 64
f 1 64 65
f 1 65 2
f 2 66 67
f 2 67 3
f 3 67 68
f 3 68 4
f 4 68 69
f 4 69 5
f 5 69 70
f 5 70 6
f 6 70 71
f 6 71 7
f 7 71 72
f 7 72 8
f 8 72 73
f 8 73 9
f 9 73 74
f 9 74 10
f 10 74 75
f 10 75 11
f 11 75 76
f 11 76 12
f 12 76 77
f 12 77 13
f 13 77 78
f 13 78 14
f 14 78 79
f 14 79 15
f 15 79 80
f 15 80 16
f 16 80 81
f 16 81 17
f 17 81 82
f 17 82 18
f 18 82 83
f 18 83 19
f 19 83 84
f 19 84 20
f 20 84 85
f 20 85 21
f 21 85 86
f 21 86 22
f 22 86 87
f 22 87 23
f 23 87 88
f 23 88 24
f 24 88 89
f 24 89 25
f 25 89 90
f 25 90 26
f 26 90 91
f 26 91 27
f 27 91 92
f 27 92 28
f 28 92 93
f 28 93 29
f 29 93 94
f 29 94 30
f 30 94 95
f 30 95 31
f 31 95 96
f 31 96 32
f 32 96 97
f 32 97 33
f 33 97 98
f 33 98 34
f 34 98 99
f 34 99 35
f 35 99 100
f 35 100 36
f 36 100 101
f 36 101 37
f 37 101 102
f 37 102 38
f 38 102 103
f 38 103 39
f 39 103 104
f 39 104 40
f 40 104 105
f 40 105 41
f 41 105 106
f 41 106 42
f 42 106 107
f 42 107 43
f 43 107 108
f 43 108 44
f 44 108 109
f 44 109 45
f 45 109 110
f 45 110 46
f 46 110 111
f 46 111 47
f 47 111 112
f 47 112 48
f 48 112 113
f 48 113 49
f 49 113 114
f 49 114 50
f 50 114 115
f 50 115 51
f 51 115 116
f 51 116 52
f 52 116 117
f 52 117 53
f 53 117 118
f 53 118 54
f 54 118 119
f 54 119 55
f 55 119 120
f 55 120 56
f 56 120 121
f 56 121 57
f 57 121 122
f 57 122 58
f 58 122 123
f 58 123 59
f 59 123 124
f 59 124 60
f 60 124 125
f 60 125 61
f 61 125 126
f 61 126 62
f 62 126 127
f 62 127 63
f 63 127 128
f 63 128 64
f 64 128 129
f 64 129 65
f 65 129 66
f 65 66 2
f 66 130 131
f 66 131 67
f 67 131 132
f 67 132 68
f 68 132 133
f 68 133 69
f 69 133 134
f 69 134 70
f 70 134 135
f 70 135 71
f 71 135 136
f 71 136 72
f 72 136 137
f 72 137 73
f 73 137 138
f 73 138 74
f 74 138 139
f 74 139 75
f 75 139 140
f 75 140 76
f 76 140 141
f 76 141 77
f 77 141 142
f 77 142 78
f 78 142 143
f 78 143 79
f 79 143 144
f 79 144 80
f 80 144 145
f 80 145 81
f 81 145 146
f 81 146 82
f 82 146 147
f 82 147 83
f 83 147 148
f 83 148 84
f 84 148 149
f 84 149 85
f 85 149 150
f 85 150 86
f 86 150 151
f 86 151 87
f 87 151 152
f 87 152 88
f 88 152 153
f 88 153 89
f 89 153 154
f 89 154 90
f 90 154 155
f 90 155 91
f 91 155 156
f 91 156 92
f 92 156 157
f 92 157 93
f 93 157 158
f 93 158 94
f 94 158 159
f 94 159 95
f 95 159 160
f 95 160 96
f 96 160 161
f 96 161 97
f 97 161 162
f 97 162 98
f 98 162 163
f 98 163 99
f 99 163 164
f 99 164 100
f 100 164 165
f 100 165 101
f 101 165 166
f 101 166 102
f 102 166 167
f 102 167 103
f 103 167 168
f 103 168 104
f 104 168 169
f 104 169 105
f 105 169 170
f 105 170 106
f 106 170 171
f 106 171 107
f 107 171 172
f 107 172 108
f 108 172 173
f 108 173 109
f 109 173 174
f 109 174 110
f 110 174 175
f 110 175 111
f 111 175 176
f 111 176 112
f 112 176 177
f 112 177 113
f 113 177 178
f 113 178 114
f 114 178 179
f 114 179 115
f 115 179 180
f 115 180 116
f 116 180 181
f 116 181 117
f 117 181 182
f 117 182 118
f 118 182 183
f 118 183 119
f 119 183 184
f 119 184 120
f 120 184 185
f 120 185 121
f 121 185 186
f 121 186 122
f 122 186 187
f 122 187 123
f 123 187 188
f 123 188 124
f 124 188 189
f 124 189 125
f 125 189 190
f 125 190 126
f 126 190 191
f 126 191 127
f 127 191 192
f 127 192 128
f 128 192 193
f 128 193 129
f 129 193 130
f 129 130 66
f 130 194 195
f 130 195 131
f 131 195 196
f 131 196 132
f 132 196 197
f 132 197 133
f 133 197 198
f 133 198 134
f 134 198 199
f 134 199 135
f 135 199 200
f 135 200 136
f 136 200 201
f 136 201 137
f 137 201 202
f 137 202 138
f 138 202 203
f 138 203 139
f 139 203 204
f 139 204 140
f 140 204 205
f 140 205 141
f 141 205 206
f 141 206 142
f 142 206 207
f 142 207 143
f 143 207 208
f 143 208 144
f 144 208 209
f 144 209 145
f 145 209 210
f 145 210 146
f 146 210 211
f 146 211 147
f 147 211 212
f 147 212 148
f 148 212 213
f 148 213 149
f 149 213 214
f 149 214 150
f 150 214 215
f 150 215 151
f 151 215 216
f 151 216 152
f 152 216 217
f 152 217 153
f 153 217 218
f 153 218 154
f 154 218 219
f 154 219 155
f 155 219 220
f 155 220 156
f 156 220 221
f 156 221 157
f 157 221 222
f 157 222 158
f 158 222 223
f 158 223 159
f 159 223 224
f 159 224 160
f 160 224 225
f 160 225 161
f 161 225 226
f 161 226 162
f 162 226 227
f 162 227 163
f 163 227 228
f 163 228 164
f 164 228 229
f 164 229 165
f 165 229 230
f 165 230 166
f 166 230 231
f 166 231 167
f 167 231 232
f 167 232 168
f 168 232 233
f 168 233 169
f 169 233 234
f 169 234 170
f 170 234 235
f 170 235 171
f 171 235 236
f 171 236 172
f 172 236 237
f 172 237 173
f 173 237 238
f 173 238 174
f 174 238 239
f 174 239 175
f 175 239 240
f 175 240 176
f 176 240 241
f 176 241 177
f 177 241 242
f 177 242 178
f 178 242 243
f 178 243 179
f 179 243 244
f 179 244 180
f 180 244 245
f 180 245 181
f 181 245 246
f 181 246 182
f 182 246 247
f 182 247 183
f 183 247 248
f 183 248 184
f 184 248 249
f 184 249 185
f 185 249 250
f 185 250 186
f 186 250 251
f 186 251 187
f 187 251 252
f 187 252 188
f 188 252 253
f 188 253 189
f 189 253 254
f 189 254 190
f 190 254 255
f 190 255 191
f 191 255 256
f 191 256 192
f 192 256 257
f 192 257 193
f 193 257 194
f 193 194 130
f 194 258 259
f 194 259 195
f 195 259 260
f 195 260 196
f 196 260 261
f 196 261 197
f 197 261 262
f 197 262 198
f 198 262 263
f 198 263 199
f 199 263 264
f 199 264 200
f 200 264 265
f 200 265 201
f 201 265 266
f 201 266 202
f 202 266 267
f 202 267 203
f 203 267 268
f 203 268 204
f 204 268 269
f 204 269 205
f 205 269 270
f 205 270 206
f 206 270 271
f 206 271 207
f 207 271 272
f 207 272 208
f 208 272 273
f 208 273 209
f 209 273 274
f 209 274 210
f 210 274 275
f 210 275 211
f 211 275 276
f 211 276 212
f 212 276 277
f 212 277 213
f 213 277 278
f 213 278 214
f 214 278 279
f 214 279 215
f 215 279 280
f 215 280 216
f 216 280 281
f 216 281 217
f 217 281 282
f 217 282 218
f 218 282 283
f 218 283 219
f 219 283 284
f 219 284 220
f 220 284 285
f 220 285 221
f 221 285 286
f 221 286 222
f 222 286 287
f 222 287 223
f 223 287 288
f 223 288 224
f 224 288 289
f 224 289 225
f 225 289 290
f 225 290 226
f 226 290 291
f 226 291 227
f 227 291 292
f 227 292 228
f 228 292 293
f 228 293 229
f 229 293 294
f 229 294 230
f 230 294 295
f 230 295 231
f 231 295 296
f 231 296 232
f 232 296 297
f 232 297 233
f 233 297 298
f 233 298 234
f 234 298 299
f 234 299 235
f 235 299 300
f 235 300 236
f 236 300 301
f 236 301 237
f 237 301 302
f 237 302 238
f 238 302 303
f 238 303 239
f 239 303 304
f 239 304 240
f 240 304 305
f 240 305 241
f 241 305 306
f 241 306 242
f 242 306 307
f 242 307 243
f 243 307 308
f 243 308 244
f 244 308 309
f 244 309 245
f 245 309 310
f 245 310 246
f 246 310 311
f 246 311 247
f 247 311 312
f 247 312 248
f 248 312 313
f 248 313 249
f 249 313 314
f 249 314 250
f 250 314 315
f 250 315 251
f 251 315 316
f 251 316 252
f 252 316 317
f 252 317 253
f 253 317 318
f 253 318 254
f 254 318 319
f 254 319 255
f 255 319 320
f 255 320 256
f 256 320 321
f 256 321 257
f 257 321 258
f 257 258 194
f 258 322 323
f 258 323 259
f 259 323 324
f 259 324 260
f 260 324 325
f 260 325 261
f 261 325 326
f 261 326 262
f 262 326 327
f 262 327 263
f 263 327 328
f 263 328 264
f 264 328 329
f 264 329 265
f 265 329 330
f 265 330 266
f 266 330 331
f 266 331 267
f 267 331 332
f 267 332 268
f 268 332 333
f 268 333 269
f 269 333 334
f 269 334 270
f 270 334 335
f 270 335 271
f 271 335 336
f 271 336 272
f 272 336 337
f 272 337 273
f 273 337 338
f 273 338 274
f 274 338 339
f 274 339 275
f 275 339 340
f 275 340 276
f 276 340 341
f 276 341 277
f 277 341 342
f 277 342 278
f 278 342 343
f 278 343 279
f 279 343 344
f 279 344 280
f 280 344 345
f 280 345 281
f 281 345 346
f 281 346 282
f 282 346 347
f 282 347 283
f 283 347 348
f 283 348 284
f 284 348 349
f 284 349 285
f 285 349 350
f 285 350 286
f 286 350 351
f 286 351 287
f 287 351 352
f 287 352 288
f 288 352 353
f 288 353 289
f 289 353 354
f 289 354 290
f 290 354 355
f 290 355 291
f 291 355 356
f 291 356 292
f 292 356 357
f 292 357 293
f 293 357 358
f 293 358 294
f 294 358 359
f 294 359 295
f 295 359 360
f 295 360 296
f 296 360 361
f 296 361 297
f 297 361 362
f 297 362 298
f 298 362 363
f 298 363 299
f 299 363 364
f 299 364 300
f 300 364 365
f 300 365 301
f 301 365 366
f 301 366 302
f 302 366 367
f 302 367 303
f 303 367 368
f 303 368 304
f 304 368 369
f 304 369 305
f 305 369 370
f 305 370 306
f 306 370 371
f 306 371 307
f 307 371 372
f 307 372 308
f 308 372 373
f 308 373 309
f 309 373 374
f 309 374 310
f 310 374 375
f 310 375 311
f 311 375 376
f 311 376 312
f 312 376 377
f 312 377 313
f 313 377 378
f 313 378 314
f 314 378 379
f 314 379 315
f 315 379 380
f 315 380 316
f 316 380 381
f 316 381 317
f 317 381 382
f 317 382 318
f 318 382 383
f 318 383 319
f 319 383 384
f 319 384 320
f 320 384 385
f 320 385 321
f 321 385 322
f 321 322 258
f 322 386 387
f 322 387 323
f 323 387 388
f 323 388 324
f 324 388 389
f 324 389 325
f 325 389 390
f 325 390 326
f 326 390 391
f 326 391 327
f 327 391 392
f 327 392 328
f 328 392 393
f 328 393 329
f 329 393 394
f 329 394 330
f 330 394 395
f 330 395 331
f 331 395 396
f 331 396 332
f 332 396 397
f 332 397 333
f 333 397 398
f 333 398 334
f 334 398 399
f 334 399 335
f 335 399 400
f 335 400 336
f 336 400 401
f 336 401 337
f 337 401 402
f 337 402 338
f 338 402 403
f 338 403 339
f 339 403 404
f 339 404 340
f 340 404 405
f 340 405 341
f 341 405 406
f 341 406 342
f 342 406 407
f 342 407 343
f 343 407 408
f 343 408 344
f 344 408 409
f 344 409 345
f 345 409 410
f 345 410 346
f 346 410 411
f 346 411 347
f 347 411 412
f 347 412 348
f 348 412 413
f 348 413 349
f 349 413 414
f 349 414 350
f 350 414 415
f 350 415 351
f 351 415 416
f 351 416 352
f 352 416 417
f 352 417 353
f 353 417 418
f 353 418 354
f 354 418 419
f 354 419 355
f 355 419 420
f 355 420 356
f 356 420 421
f 356 421 357
f 357 421 422
f 357 422 358
f 358 422 423
f 358 423 359
f 359 423 424
f 359 424 360
f 360 424 425
f 360 425 361
f 361 425 426
f 361 426 362
f 362 426 427
f 362 427 363
f 363 427 428
f 363 428 364
f 364 428 429
f 364 429 365
f 365 429 430
f 365 430 366
f 366 430 431
f 366 431 367
f 367 431 432
f 367 432 368
f 368 432 433
f 368 433 369
f 369 433 434
f 369 434 370
f 370 434 435
f 370 435 371
f 371 435 436
f 371 436 372
f 372 436 437
f 372 437 373
f 373 437 438
f 373 438 374
f 374 438 439
f 374 439 375
f 375 439 440
f 375 440 376
f 376 440 441
f 376 441 377
f 377 441 442
f 377 442 378
f 378 442 443
f 378 443 379
f 379 443 444
f 379 444 380
f 380 444 445
f 380 445 381
f 381 445 446
f 381 446 382
f 382 446 447
f 382 447 383
f 383 447 448
f 383 448 384
f 384 448 449
f 384 449 385
f 385 449 386
f 385 386 322
f 386 450 451
f 386 451 387
f 387 451 452
f 387 452 388
f 388 452 453
f 388 453 389
f 389 453 454
f 389 454 390
f 390 454 455
f 390 455 391
f 391 455 456
f 391 456 392
f 392 456 457
f 392 457 393
f 393 457 458
f 393 458 394
f 394 458 459
f 394 459 395
f 395 459 460
f 395 460 396
f 396 460 461
f 396 461 397
f 397 461 462
f 397 462 398
f 398 462 463
f 398 463 399
f 399 463 464
f 399 464 400
f 400 464 465
f 400 465 401
f 401 465 466
f 401 466 402
f 402 466 467
f 402 467 403
f 403 467 468
f 403 468 404
f 404 468 469
f 404 469 405
f 405 469 470
f 405 470 406
f 406 470 471
f 406 471 407
f 407 471 472
f 407 472 408
f 408 472 473
f 408 473 409
f 409 473 474
f 409 474 410
f 410 474 475
f 410 475 411
f 411 475 476
f 411 476 412
f 412 476 477
f 412 477 413
f 413 477 478
f 413 478 414
f 414 478 479
f 414 479 415
f 415 479 480
f 415 480 416
f 416 480 481
f 416 481 417
f 417 481 482
f 417 482 418
f 418 482 483
f 418 483 419
f 419 483 484
f 419 484 420
f 420 484 485
f 420 485 421
f 421 485 486
f 421 486 422
f 422 486 487
f 422 487 423
f 423 487 488
f 423 488 424
f 424 488 489
f 424 489 425
f 425 489 490
f 425 490 426
f 426 490 491
f 426 491 427
f 427 491 492
f 427 492 428
f 428 492 493
f 428 493 429
f 429 493 494
f 429 494 430
f 430 494 495
f 430 495 431
f 431 495 496
f 431 496 432
f 432 496 497
f 432 497 433
f 433 497 498
f 433 498 434
f 434 498 499
f 434 499 435
f 435 499 500
f 435 500 436
f 436 500 501
f 436 501 437
f 437 501 502
f 437 502 438
f 438 502 503
f 438 503 439
f 439 503 504
f 439 504 440
f 440 504 505
f 440 505 441
f 441 505 506
f 441 506 442
f 442 506 507
f 442 507 443
f 443 507 508
f 443 508 444
f 444 508 509
f 444 509 445
f 445 509 510
f 445 510 446
f 446 510 511
f 446 511 447
f 447 511 512
f 447 512 448
f 448 512 513
f 448 513 449
f 449 513 450
f 449 450 386
f 450 514 515
f 450 515 451
f 451 515 516
f 451 516 452
f 452 516 517
f 452 517 453
f 453 517 518
f 453 518 454
f 454 518 519
f 454 519 455
f 455 519 520
f 455 520 456
f 456 520 521
f 456 521 457
f 457 521 522
f 457 522 458
f 458 522 523
f 458 523 459
f 459 523 524
f 459 524 460
f 460 524 525
f 460 525 461
f 461 525 526
f 461 526 462
f 462 526 527
f 462 527 463
f 463 527 528
f 463 528 464
f 464 528 529
f 464 529 465
f 465 529 530
f 465 530 466
f 466 530 531
f 466 531 467
f 467 531 532
f 467 532 468
f 468 532 533
f 468 533 469
f 469 533 534
f 469 534 470
f 470 534 535
f 470 535 471
f 471 535 536
f 471 536 472
f 472 536 537
f 472 537 473
f 473 537 538
f 473 538 474
f 474 538 539
f 474 539 475
f 475 539 540
f 475 540 476
f 476 540 541
f 476 541 477
f 477 541 542
f 477 542 478
f 478 542 543
f 478 543 479
f 479 543 544
f 479 544 480
f 480 544 545
f 480 545 481
f 481 545 546
f 481 546 482
f 482 546 547
f 482 547 483
f 483 547 548
f 483 548 484
f 484 548 549
f 484 549 485
f 485 549 550
f 485 550 486
f 486 550 551
f 486 551 487
f 487 551 552
f 487 552 488
f 488 552 553
f 488 553 489
f 489 553 554
f 489 554 490
f 490 554 555
f 490 555 491
f 491 555 556
f 491 556 492
f 492 556 557
f 492 557 493
f 493 557 558
f 493 558 494
f 494 558 559
f 494 559 495
f 495 559 560
f 495 560 496
f 496 560 561
f 496 561 497
f 497 561 562
f 497 562 498
f 498 562 563
f 498 563 499
f 499 563 564
f 499 564 500
f 500 564 565
f 500 565 501
f 501 565 566
f 501 566 502
f 502 566 567
f 502 567 503
f 503 567 568
f 503 568 504
f 504 568 569
f 504 569 505
f 505 569 570
f 505 570 506
f 506 570 571
f 506 571 507
f 507 571 572
f 507 572 508
f 508 572 573
f 508 573 509
f 509 573 574
f 509 574 510
f 510 574 575
f 510 575 511
f 511 575 576
f 511 576 512
f 512 576 577
f 512 577 513
f 513 577 514
f 513 514 450
f 514 578 579
f 514 579 515
f 515 579 580
f 515 580 516
f 516 580 581
f 516 581 517
f 517 581 582
f 517 582 518
f 518 582 583
f 518 583 519
f 519 583 584
f 519 584 520
f 520 584 585
f 520 585 521
f 521 585 586
f 521 586 522
f 522 586 587
f 522 587 523
f 523 587 588
f 523 588 524
f 524 588 589
f 524 589 525
f 525 589 590
f 525 590 526
f 526 590 591
f 526 591 527
f 527 591 592
f 527 592 528
f 528 592 593
f 528 593 529
f 529 593 594
f 529 594 530
f 530 594 595
f 530 595 531
f 531 595 596
f 531 596 532
f 532 596 597
f 532 597 533
f 533 597 598
f 533 598 534
f 534 598 599
f 534 599 535
f 535 599 600
f 535 600 536
f 536 600 601
f 536 601 537
f 537 601 602
f 537 602 538
f 538 602 603
f 538 603 539
f 539 603 604
f 539 604 540
f 540 604 605
f 540 605 541
f 541 605 606
f 541 606 542
f 542 606 607
f 542 607 543
f 543 607 608
f 543 608 544
f 544 608 609
f 544 609 545
f 545 609 610
f 545 610 546
f 546 610 611
f 546 611 547
f 547 611 612
f 547 612 548
f 548 612 613
f 548 613 549
f 549 613 614
f 549 614 550
f 550 614 615
f 550 615 551
f 551 615 616
f 551 616 552
f 552 616 617
f 552 617 553
f 553 617 618
f 553 618 554
f 554 618 619
f 554 619 555
f 555 619 620
f 555 620 556
f 556 620 621
f 556 621 557
f 557 621 622
f 557 622 558
f 558 622 623
f 558 623 559
f 559 623 624
f 559 624 560
f 560 624 625
f 560 625 561
f 561 625 626
f 561 626 562
f 562 626 627
f 562 627 563
f 563 627 628
f 563 628 564
f 564 628 629
f 564 629 565
f 565 629 630
f 565 630 566
f 566 630 631
f 566 631 567
f 567 631 632
f 567 632 568
f 568 632 633
f 568 633 569
f 569 633 634
f 569 634 570
f 570 634 635
f 570 635 571
f 571 635 636
f 571 636 572
f 572 636 637
f 572 637 573
f 573 637 638
f 573 638 574
f 574 638 639
f 574 639 575
f 575 639 640
f 575 640 576
f 576 640 641
f 576 641 577
f 577 641 578
f 577 578 514
f 578 642 643
f 578 643 579
f 579 643 644
f 579 644 580
f 580 644 645
f 580 645 581
f 581 645 646
f 581 646 582
f 582 646 647
f 582 647 583
f 583 647 648
f 583 648 584
f 584 648 649
f 584 649 585
f 585 649 650
f 585 650 586
f 586 650 651
f 586 651 587
f 587 651 652
f 587 652 588
f 588 652 653
f 588 653 589
f 589 653 654
f 589 654 590
f 590 654 655
f 590 655 591
f 591 655 656
f 591 656 592
f 592 656 657
f 592 657 593
f 593 657 658
f 593 658 594
f 594 658 659
f 594 659 595
f 595 659 660
f 595 660 596
f 596 660 661
f 596 661 597
f 597 661 662
f 597 662 598
f 598 662 663
f 598 663 599
f 599 663 664
f 599 664 600
f 600 664 665
f 600 665 601
f 601 665 666
f 601 666 602
f 602 666 667
f 602 667 603
f 603 667 668
f 603 668 604
f 604 668 669
f 604 669 605
f 605 669 670
f 605 670 606
f 606 670 671
f 606 671 607
f 607 671 672
f 607 672 608
f 608 672 673
f 608 673 609
f 609 673 674
f 609 674 610
f 610 674 675
f 610 675 611
f 611 675 676
f 611 676 612
f 612 676 677
f 612 677 613
f 613 677 678
f 613 678 614
f 614 678 679
f 614 679 615
f 615 679 680
f 615 680 616
f 616 680 681
f 616 681 617
f 617 681 682
f 617 682 618
f 618 682 683
f 618 683 619
f 619 683 684
f 619 684 620
f 620 684 685
f 620 685 621
f 621 685 686
f 621 686 622
f 622 686 687
f 622 687 623
f 623 687 688
f 623 688 624
f 624 688 689
f 624 689 625
f 625 689 690
f 625 690 626
f 626 690 691
f 626 691 627
f 627 691 692
f 627 692 628
f 628 692 693
f 628 693 629
f 629 693 694
f 629 694 630
f 630 694 695
f 630 695 631
f 631 695 696
f 631 696 632
f 632 696 697
f 632 697 633
f 633 697 698
f 633 698 634
f 634 698 699
f 634 699 635
f 635 699 700
f 635 700 636
f 636 700 701
f 636 701 637
f 637 701 702
f 637 702 638
f 638 702 703
f 638 703 639
f 639 703 704
f 639 704 640
f 640 704 705
f 640 705 641
f 641 705 642
f 641 642 578
f 642 706 707
f 642 707 643
f 643 707 708
f 643 708 644
f 644 708 709
f 644 709 645
f 645 709 710
f 645 710 646
f 646 710 711
f 646 711 647
f 647 711 712
f 647 712 648
f 648 712 713
f 648 713 649
f 649 713 714
f 649 714 650
f 650 714 715
f 650 715 651
f 651 715 716
f 651 716 652
f 652 716 717
f 652 717 653
f 653 717 718
f 653 718 654
f 654 718 719
f 654 719 655
f 655 719 720
f 655 720 656
f 656 720 721
f 656 721 657
f 657 721 722
f 657 722 658
f 658 722 723
f 658 723 659
f 659 723 724
f 659 724 660
f 660 724 725
f 660 725 661
f 661 725 726
f 661 726 662
f 662 726 727
f 662 727 663
f 663 727 728
f 663 728 664
f 664 728 729
f 664 729 665
f 665 729 730
f 665 730 666
f 666 730 731
f 666 731 667
f 667 731 732
f 667 732 668
f 668 732 733
f 668 733 669
f 669 733 734
f 669 734 670
f 670 734 735
f 670 735 671
f 671 735 736
f 671 736 672
f 672 736 737
f 672 737 673
f 673 737 738
f 673 738 674
f 674 738 739
f 674 739 675
f 675 739 740
f 675 740 676
f 676 740 741
f 676 741 677
f 677 741 742
f 677 742 678
f 678 742 743
f 678 743 679
f 679 743 744
f 679 744 680
f 680 744 745
f 680 745 681
f 681 745 746
f 681 746 682
f 682 746 747
f 682 747 683
f 683 747 748
f 683 748 684
f 684 748 749
f 684 749 685
f 685 749 750
f 685 750 686
f 686 750 751
f 686 751 687
f 687 751 752
f 687 752 688
f 688 752 753
f 688 753 689
f 689 753 754
f 689 754 690
f 690 754 755
f 690 755 691
f 691 755 756
f 691 756 692
f 692 756 757
f 692 757 693
f 693 757 758
f 693 758 694
f 694 758 759
f 694 759 695
f 695 759 760
f 695 760 696
f 696 760 761
f 696 761 697
f 697 761 762
f 697 762 698
f 698 762 763
f 698 763 699
f 699 763 764
f 699 764 700
f 700 764 765
f 700 765 701
f 701 765 766
f 701 766 702
f 702 766 767
f 702 767 703
f 703 767 768
f 703 768 704
f 704 768 769
f 704 769 705
f 705 769 706
f 705 706 642
f 706 770 771
f 706 771 707
f 707 771 772
f 707 772 708
f 708 772 773
f 708 773 709
f 709 773 774
f 709 774 710
f 710 774 775
f 710 775 711
f 711 775 776
f 711 776 712
f 712 776 777
f 712 777 713
f 713 777 778
f 713 778 714
f 714 778 779
f 714 779 715
f 715 779 780
f 715 780 716
f 716 780 781
f 716 781 717
f 717 781 782
f 717 782 718
f 718 782 783
f 718 783 719
f 719 783 784
f 719 784 720
f 720 784 785
f 720 785 721
f 721 785 786
f 721 786 722
f 722 786 787
f 722 787 723
f 723 787 788
f 723 788 724
f 724 788 789
f 724 789 725
f 725 789 790
f 725 790 726
f 726 790 791
f 726 791 727
f 727 791 792
f 727 792 728
f 728 792 793
f 728 793 729
f 729 793 794
f 729 794 730
f 730 794 795
f 730 795 731
f 731 795 796
f 731 796 732
f 732 796 797
f 732 797 733
f 733 797 798
f 733 798 734
f 734 798 799
f 734 799 735
f 735 799 800
f 735 800 736
f 736 800 801
f 736 801 737
f 737 801 802
f 737 802 738
f 738 802 803
f 738 803 739
f 739 803 804
f 739 804 740
f 740 804 805
f 740 805 741
f 741 805 806
f 741 806 742
f 742 806 807
f 742 807 743
f 743 807 808
f 743 808 744
f 744 808 809
f 744 809 745
f 745 809 810
f 745 810 746
f 746 810 811
f 746 811 747
f 747 811 812
f 747 812 748
f 748 812 813
f 748 813 749
f 749 813 814
f 749 814 750
f 750 814 815
f 750 815 751
f 751 815 816
f 751 816 752
f 752 816 817
f 752 817 753
f 753 817 818
f 753 818 754
f 754 818 819
f 754 819 755
f 755 819 820
f 755 820 756
f 756 820 821
f 756 821 757
f 757 821 822
f 757 822 758
f 758 822 823
f 758 823 759
f 759 823 824
f 759 824 760
f 760 824 825
f 760 825 761
f 761 825 826
f 761 826 762
f 762 826 827
f 762 827 763
f 763 827 828
f 763 828 764
f 764 828 829
f 764 829 765
f 765 829 830
f 765 830 766
f 766 830 831
f 766 831 767
f 767 831 832
f 767 832 768
f 768 832 833
f 768 833 769
f 769 833 770
f 769 770 706
f 770 834 835
f 770 835 771
f 771 835 836
f 771 836 772
f 772 836 837
f 772 837 773
f 773 837 838
f 773 838 774
f 774 838 839
f 774 839 775
f 775 839 840
f 775 840 776
f 776 840 841
f 776 841 777
f 777 841 842
f 777 842 778
f 778 842 843
f 778 843 779
f 779 843 844
f 779 844 780
f 780 844 845
f 780 845 781
f 781 845 846
f 781 846 782
f 782 846 847
f 782 847 783
f 783 847 848
f 783 848 784
f 784 848 849
f 784 849 785
f 785 849 850
f 785 850 786
f 786 850 851
f 786 851 787
f 787 851 852
f 787 852 788
f 788 852 853
f 788 853 789
f 789 853 854
f 789 854 790
f 790 854 855
f 790 855 791
f 791 855 856
f 791 856 792
f 792 856 857
f 792 857 793
f 793 857 858
f 793 858 794
f 794 858 859
f 794 859 795
f 795 859 860
f 795 860 796
f 796 860 861
f 796 861 797
f 797 861 862
f 797 862 798
f 798 862 863
f 798 863 799
f 799 863 864
f 799 864 800
f 800 864 865
f 800 865 801
f 801 865 866
f 801 866 802
f 802 866 867
f 802 867 803
f 803 867 868
f 803 868 804
f 804 868 869
f 804 869 805
f 805 869 870
f 805 870 806
f 806 870 871
f 806 871 807
f 807 871 872
f 807 872 808
f 808 872 873
f 808 873 809
f 809 873 874
f 809 874 810
f 810 874 875
f 810 875 811
f 811 875 876
f 811 876 812
f 812 876 877
f 812 877 813
f 813 877 878
f 813 878 814
f 814 878 879
f 814 879 815
f 815 879 880
f 815 880 816
f 816 880 881
f 816 881 817
f 817 881 882
f 817 882 818
f 818 882 883
f 818 883 819
f 819 883 884
f 819 884 820
f 820 884 885
f 820 885 821
f 821 885 886
f 821 886 822
f 822 886 887
f 822 887 823
f 823 887 888
f 823 888 824
f 824 888 889
f 824 889 825
f 825 889 890
f 825 890 826
f 826 890 891
f 826 891 827
f 827 891 892
f 827 892 828
f 828 892 893
f 828 893 829
f 829 893 894
f 829 894 830
f 830 894 895
f 830 895 831
f 831 895 896
f 831 896 832
f 832 896 897
f 832 897 833
f 833 897 834
f 833 834 770
f 834 898 899
f 834 899 835
f 835 899 900
f 835 900 836
f 836 900 901
f 836 901 837
f 837 901 902
f 837 902 838
f 838 902 903
f 838 903 839
f 839 903 904
f 839 904 840
f 840 904 905
f 840 905 841
f 841 905 906
f 841 906 842
f 842 906 907
f 842 907 843
f 843 907 908
f 843 908 844
f 844 908 909
f 844 909 845
f 845 909 910
f 845 910 846
f 846 910 911
f 846 911 847
f 847 911 912
f 847 912 848
f 848 912 913
f 848 913 849
f 849 913 914
f 849 914 850
f 850 914 915
f 850 915 851
f 851 915 916
f 851 916 852
f 852 916 917
f 852 917 853
f 853 917 918
f 853 918 854
f 854 918 919
f 854 919 855
f 855 919 920
f 855 920 856
f 856 920 921
f 856 921 857
f 857 921 922
f 857 922 858
f 858 922 923
f 858 923 859
f 859 923 924
f 859 924 860
f 860 924 925
f 860 925 861
f 861 925 926
f 861 926 862
f 862 926 927
f 862 927 863
f 863 927 928
f 863 928 864
f 864 928 929
f 864 929 865
f 865 929 930
f 865 930 866
f 866 930 931
f 866 931 867
f 867 931 932
f 867 932 868
f 868 932 933
f 868 933 869
f 869 933 934
f 869 934 870
f 870 934 935
f 870 935 871
f 871 935 936
f 871 936 872
f 872 936 937
f 872 937 873
f 873 937 938
f 873 938 874
f 874 938 939
f 874 939 875
f 875 939 940
f 875 940 876
f 876 940 941
f 876 941 877
f 877 941 942
f 877 942 878
f 878 942 943
f 878 943 879
f 879 943 944
f 879 944 880
f 880 944 945
f 880 945 881
f 881 945 946
f 881 946 882
f 882 946 947
f 882 947 883
f 883 947 948
f 883 948 884
f 884 948 949
f 884 949 885
f 885 949 950
f 885 950 886
f 886 950 951
f 886 951 887
f 887 951 952
f 887 952 888
f 888 952 953
f 888 953 889
f 889 953 954
f 889 954 890
f 890 954 955
f 890 955 891
f 891 955 956
f 891 956 892
f 892 956 957
f 892 957 893
f 893 957 958
f 893 958 894
f 894 958 959
f 894 959 895
f 895 959 960
f 895 960 896
f 896 960 961
f 896 961 897
f 897 961 898
f 897 898 834
f 898 962 963
f 898 963 899
f 899 963 964
f 899 964 900
f 900 964 965
f 900 965 901
f 901 965 966
f 901 966 902
f 902 966 967
f 902 967 903
f 903 967 968
f 903 968 904
f 904 968 969
f 904 969 905
f 905 969 970
f 905 970 906
f 906 970 971
f 906 971 907
f 907 971 972
f 907 972 908
f 908 972 973
f 908 973 909
f 909 973 974
f 909 974 910
f 910 974 975
f 910 975 911
f 911 975 976
f 911 976 912
f 912 976 977
f 912 977 913
f 913 977 978
f 913 978 914
f 914 978 979
f 914 979 915
f 915 979 980
f 915 980 916
f 916 980 981
f 916 981 917
f 917 981 982
f 917 982 918
f 918 982 983
f 918 983 919
f 919 983 984
f 919 984 920
f 920 984 985
f 920 985 921
f 921 985 986
f 921 986 922
f 922 986 987
f 922 987 923
f 923 987 988
f 923 988 924
f 924 988 989
f 924 989 925
f 925 989 990
f 925 990 926
f 926 990 991
f 926 991 927
f 927 991 992
f 927 992 928
f 928 992 993
f 928 993 929
f 929 993 994
f 929 994 930
f 930 994 995
f 930 995 931
f 931 995 996
f 931 996 932
f 932 996 997
f 932 997 933
f 933 997 998
f 933 998 934
f 934 998 999
f 934 999 935
f 935 999 1000
f 935 1000 936
f 936 1000 1001
f 936 1001 937
f 937 1001 1002
f 937 1002 938
f 938 1002 1003
f 938 1003 939
f 939 1003 1004
f 939 1004 940
f 940 1004 1005
f 940 1005 941
f 941 1005 1006
f 941 1006 942
f 942 1006 1007
f 942 1007 943
f 943 1007 1008
f 943 1008 944
f 944 1008 1009
f 944 1009 945
f 945 1009 1010
f 945 1010 946
f 946 1010 1011
f 946 1011 947
f 947 1011 1012
f 947 1012 948
f 948 1012 1013
f 948 1013 949
f 949 1013 1014
f 949 1014 950
f 950 1014 1015
f 950 1015 951
f 951 1015 1016
f 951 1016 952
f 952 1016 1017
f 952 1017 953
f 953 1017 1018
f 953 1018 954
f 954 1018 1019
f 954 1019 955
f 955 1019 1020
f 955 1020 956
f 956 1020 1021
f 956 1021 957
f 957 1021 1022
f 957 1022 958
f 958 1022 1023
f 958 1023 959
f 959 1023 1024
f 959 1024 960
f 960 1024 1025
f 960 1025 961
f 961 1025 962
f 961 962 898
s off
f 1026 963 962
f 1026 964 963
f 1026 965 964
f 1026 966 965
f 1026 967 966
f 1026 968 967
f 1026 969 968
f 1026 970 969
f 1026 971 970
f 1026 972 971
f 1026 973 972
f 1026 974 973
f 1026 975 974
f 1026 976 975
f 1026 977 976
f 1026 978 977
f 1026 979 978
f 1026 980 979
f 1026 981 980
f 1026 982 981
f 1026 983 982
f 1026 984 983
f 1026 985 984
f 1026 986 985
f 1026 987 986
f 1026 988 987
f 1026 989 988
f 1026 990 989
f 1026 991 990
f 1026 992 991
f 1026 993 992
f 1026 994 993
f 1026 995 994
f 1026 996 995
f 1026 997 996
f 1026 998 997
f 1026 999 998
f 1026 1000 999
f 1026 1001 1000
f 1026 1002 1001
f 1026 1003 1002
f 1026 1004 1003
f 1026 1005 1004
f 1026 1006 1005
f 1026 1007 1006
f 1026 1008 1007
f 1026 1009 1008
f 1026 1010 1009
f 1026 1011 1010
f 1026 1012 1011
f 1026 1013 1012
f 1026 1014 1013
f 1026 1015 1014
f 1026 1016 1015
f 1026 1017 1016
f 1026 1018 1017
f 1026 1019 1018
f 1026 1020 1019
f 1026 1021 1020
f 1026 1022 1021
f 1026 1023 1022
f 1026 1024 1023
f 1026 1025 1024
f 1026 962 1025
